HIERARCHY
ROOT Hips
{
	OFFSET 0.00000 0.00000 0.00000
	CHANNELS 6 Xposition Yposition Zposition Zrotation Yrotation Xrotation 
	JOINT LHipJoint
	{
		OFFSET 0 0 0
		CHANNELS 3 Zrotation Yrotation Xrotation
		JOINT LeftHip
		{
			OFFSET 1.26600 -1.82114 0.91038
			CHANNELS 3 Zrotation Yrotation Xrotation
			JOINT LeftKnee
			{
				OFFSET 2.50076 -6.87080 0.00000
				CHANNELS 3 Zrotation Yrotation Xrotation
				JOINT LeftAnkle
				{
					OFFSET 2.57364 -7.07102 0.00000
					CHANNELS 3 Zrotation Yrotation Xrotation
					JOINT LeftToe
					{
						OFFSET 0.13572 -0.37290 1.97004
						CHANNELS 3 Zrotation Yrotation Xrotation
						End Site
						{
							OFFSET 0.00000 -0.00000 1.01383
						}
					}
				}
			}
		}
	}
	JOINT RHipJoint
	{
		OFFSET 0 0 0
		CHANNELS 3 Zrotation Yrotation Xrotation
		JOINT RightHip
		{
			OFFSET -1.20803 -1.82114 0.91038
			CHANNELS 3 Zrotation Yrotation Xrotation
			JOINT RightKnee
			{
				OFFSET -2.54916 -7.00377 0.00000
				CHANNELS 3 Zrotation Yrotation Xrotation
				JOINT RightAnkle
				{
					OFFSET -2.56374 -7.04382 0.00000
					CHANNELS 3 Zrotation Yrotation Xrotation
					JOINT RightToe
					{
						OFFSET -0.23520 -0.64621 2.09921
						CHANNELS 3 Zrotation Yrotation Xrotation
						End Site
						{
							OFFSET -0.00000 -0.00000 1.10065
						}
					}
				}
			}
		}
	}
	JOINT lowerback
	{
		OFFSET 0 0 0
		CHANNELS 3 Zrotation Yrotation Xrotation
		JOINT Chest
		{
			OFFSET 0.05492 2.10797 -0.12074
			CHANNELS 3 Zrotation Yrotation Xrotation
			JOINT Chest2
			{
				OFFSET 0.04577 2.11592 -0.04483
				CHANNELS 3 Zrotation Yrotation Xrotation
				JOINT lowerneck
				{
					OFFSET 0 0 0
					CHANNELS 3 Zrotation Yrotation Xrotation
					JOINT Neck
					{
						OFFSET -0.10759 1.80167 0.15770
						CHANNELS 3 Zrotation Yrotation Xrotation
						JOINT Head
						{
							OFFSET 0.09237 1.77509 -0.40848
							CHANNELS 3 Zrotation Yrotation Xrotation
							End Site
							{
								OFFSET 0.03805 1.84093 -0.15754
							}
						}
					}
				}
				JOINT LeftCollar
				{
					OFFSET 0 0 0
					CHANNELS 3 Zrotation Yrotation Xrotation
					JOINT LeftShoulder
					{
						OFFSET 3.42372 1.09575 -0.28209
CHANNELS 3 Zrotation Xrotation Yrotation
						JOINT LeftElbow
						{
OFFSET 0 -4.956810 0.000000
CHANNELS 3 Zrotation Xrotation Yrotation
							JOINT LeftWrist
							{
OFFSET 0 -3.409150 0.000000
CHANNELS 3 Zrotation Xrotation Yrotation
								JOINT lhand
								{
									OFFSET 0 0 0
CHANNELS 3 Zrotation Xrotation Yrotation
									JOINT LFingers
									{
OFFSET 0 -0.616400 0.000000
CHANNELS 3 Zrotation Xrotation Yrotation
										End Site
										{
OFFSET 0 -0.496960 0.000000
										}
									}
								}
								JOINT LThumb
								{
OFFSET 0 0.000000 0.000000
CHANNELS 3 Zrotation Xrotation Yrotation
									End Site
									{
OFFSET 0 -0.504550 0.504550
									}
								}
							}
						}
					}
				}
				JOINT RightCollar
				{
					OFFSET 0 0 0
					CHANNELS 3 Zrotation Yrotation Xrotation
					JOINT RightShoulder
					{
						OFFSET -3.24731 1.15872 -0.32221
CHANNELS 3 Zrotation Xrotation Yrotation
						JOINT RightElbow
						{
OFFSET 0 -5.352000 0.000000
CHANNELS 3 Zrotation Xrotation Yrotation
							JOINT RightWrist
							{
OFFSET 0 -3.437210 -0.000000
CHANNELS 3 Zrotation Xrotation Yrotation
								JOINT rhand
								{
									OFFSET 0 0 0
CHANNELS 3 Zrotation Xrotation Yrotation
									JOINT RFingers
									{
OFFSET 0 -0.720090 0.000000
CHANNELS 3 Zrotation Xrotation Yrotation
										End Site
										{
OFFSET 0 -0.580560 0.000000
										}
									}
								}
								JOINT RThumb
								{
OFFSET 0 0.000000 0.000000
CHANNELS 3 Zrotation Xrotation Yrotation
									End Site
									{
OFFSET 0 -0.589420 0.589420
									}
								}
							}
						}
					}
				}
			}
		}
	}
}
MOTION
Frames: 9
Frame Time: 0.008333333333333333
10.476658 21.041751 -7.436649 -176.852240 5.290131 -183.479269 0.000000 0.000000 0.000000 -0.190166 8.095411 -3.266220 22.413592 19.859670 97.072712 -3.810010 -32.089277 13.298846 0.267969 3.328333 9.194388 0.000000 0.000000 0.000000 26.363996 3.547964 -11.843137 -3.610592 -11.621179 34.407470 -0.027591 12.150536 -8.879145 -1.244760 7.073519 -19.933740 1.349832 -1.043512 6.618406 3.837056 -0.930953 2.837260 3.263307 -0.336857 -0.744161 -7.859334 -3.786640 -9.949262 -0.182709 3.756466 43.565448 2.674827 2.336889 17.922798 0.000000 0.000000 0.000000 -3.039943 10.496105 -15.177053 14.700746 -23.727456 3.104601 26.646784 10.710770 -13.912294 0.000000 0.000000 0.000000 -7.125000 0.000000 0.000000 -0.738882 45.468433 0.008773 0.000000 0.000000 0.000000 -6.039694 4.799606 10.464348 -19.454742 -29.978972 -5.256611 -20.969284 -18.800665 -12.679444 0.000000 0.000000 0.000000 7.125000 0.000000 0.000000 4.361890 16.458639 2.955968
10.495244 21.497801 -7.773251 -176.687679 4.170732 -181.135990 0.000000 0.000000 0.000000 -0.268671 8.309623 -8.016224 23.626285 19.681030 100.657123 -2.285607 -25.867661 5.958235 0.010292 -0.529111 -1.454091 0.000000 0.000000 0.000000 26.472083 4.798505 -8.333736 -2.027405 -8.921327 25.550601 0.310756 11.313943 -1.837964 -1.224374 7.017322 -19.766996 2.150630 -1.398697 5.789343 3.596580 -1.432197 2.086251 2.588405 -0.609251 -1.060654 -7.697229 -3.637085 -10.573815 0.125402 3.341576 42.824642 2.661833 2.129731 17.630185 0.000000 0.000000 0.000000 -1.126741 11.056007 -18.878210 16.496140 -26.188486 3.862527 24.637408 3.287244 -17.038360 0.000000 0.000000 0.000000 -7.125000 0.000000 0.000000 -3.175610 48.585761 0.281104 0.000000 0.000000 0.000000 -5.961419 8.034230 13.065020 -21.364242 -32.251004 -6.243146 -21.711778 -18.947326 -13.391236 0.000000 0.000000 0.000000 7.125000 0.000000 0.000000 3.877804 15.629155 2.695966
10.474894 21.662603 -7.992327 -175.004751 1.668871 -180.387134 0.000000 0.000000 0.000000 3.332339 7.951316 -14.556364 26.618696 18.914878 109.695002 -1.830209 -24.791938 -0.280471 0.180823 -2.738716 -7.552072 0.000000 0.000000 0.000000 28.387620 3.510512 -5.913360 -1.276501 -7.160200 20.190918 0.215301 8.467329 0.825231 -1.252886 7.096151 -20.000522 4.773561 -1.768134 6.625796 3.841232 -1.618707 2.138323 1.409940 -0.661169 -1.536957 -7.892741 -4.134352 -11.427306 0.787067 2.059781 42.367835 2.754580 1.575660 17.623997 0.000000 0.000000 0.000000 1.373568 9.203466 -21.310400 17.877255 -27.999489 4.491592 25.821011 2.287576 -16.482920 0.000000 0.000000 0.000000 -7.125000 0.000000 0.000000 -1.923532 48.166268 0.150695 0.000000 0.000000 0.000000 -6.657706 8.659329 13.533629 -20.557052 -31.307422 -5.818193 -20.791937 -19.147721 -13.659524 0.000000 0.000000 0.000000 7.125000 0.000000 0.000000 4.520947 15.438765 3.164032
10.450289 21.670553 -8.148469 -173.440429 -0.689658 -180.974060 0.000000 0.000000 0.000000 6.952779 8.320431 -22.366325 29.161092 17.854994 117.743110 -1.260794 -24.662279 -7.247771 0.244921 -3.184444 -8.792652 0.000000 0.000000 0.000000 30.533255 2.668629 -3.914201 -1.028569 -6.451086 18.099077 0.056274 4.319564 0.522078 -1.374488 7.419198 -20.963514 6.599185 -1.316044 8.447619 4.486099 -1.625403 2.536525 1.123808 -1.051127 -2.124024 -8.562486 -4.953354 -11.233466 1.206748 0.891592 42.412280 2.872212 1.067959 17.686488 0.000000 0.000000 0.000000 1.562283 7.997644 -18.436999 21.439328 -32.336211 6.283892 24.624065 4.354287 -19.800805 0.000000 0.000000 0.000000 -7.125000 0.000000 0.000000 -3.826291 51.547035 0.616270 0.000000 0.000000 0.000000 -8.048846 6.348330 11.119628 -16.804068 -26.596331 -4.000531 -19.980448 -15.295729 -14.253122 0.000000 0.000000 0.000000 7.125000 0.000000 0.000000 5.098794 14.896145 3.631339
10.379686 21.603298 -8.268043 -173.652835 -2.080257 -181.457025 0.000000 0.000000 0.000000 3.643232 6.877142 -30.129156 29.326778 17.771378 118.284298 -0.278175 -19.546348 -11.256793 0.055859 -1.523115 -4.189502 0.000000 0.000000 0.000000 30.206455 4.279038 -2.014202 -0.952534 -6.215012 17.409631 -0.002199 1.583581 -1.328118 -0.940529 6.176940 -17.298767 7.037814 -0.477240 9.422632 4.468558 -0.517345 3.335761 0.753804 -0.518320 -1.792229 -10.330860 1.273776 -10.856302 4.927702 -4.322331 41.989804 2.748283 -4.844149 17.573412 0.000000 0.000000 0.000000 2.126934 5.516369 -19.979179 24.189390 -35.363695 7.815952 26.291581 1.126500 -20.743730 0.000000 0.000000 0.000000 -7.125000 0.000000 0.000000 -2.369791 52.865737 0.458824 0.000000 0.000000 0.000000 -8.364549 2.639161 3.410767 -13.268067 -21.678564 -2.551603 -20.712739 -11.267684 -11.642496 0.000000 0.000000 0.000000 7.125000 0.000000 0.000000 4.507072 17.580398 2.944464
10.297556 21.538427 -8.406114 -172.502477 -2.951217 -181.718594 0.000000 0.000000 0.000000 -0.321987 1.183602 -34.264212 26.047596 19.095655 107.944117 -0.260841 -18.073802 -10.153857 0.139273 -2.374615 -6.543586 0.000000 0.000000 0.000000 31.418722 5.219554 -2.297041 -1.149446 -6.806637 19.144056 -0.008382 -0.260607 -1.875436 -0.852442 5.888251 -16.460522 8.483449 -0.131587 10.147059 4.989724 -0.004549 3.701107 0.449083 -0.316123 -1.764403 -10.838749 1.035322 -10.574217 5.542372 -4.858349 42.039235 3.047941 -5.045455 17.633778 0.000000 0.000000 0.000000 2.562930 6.122193 -22.213481 27.143074 -38.315218 9.587736 25.527405 1.161950 -20.577669 0.000000 0.000000 0.000000 -7.125000 0.000000 0.000000 -3.111699 52.544997 0.572631 0.000000 0.000000 0.000000 -8.370719 0.579892 -2.166195 -12.601159 -20.699960 -2.310471 -23.237676 -12.641505 -11.464945 0.000000 0.000000 0.000000 7.125000 0.000000 0.000000 2.733263 17.541573 1.784255
10.187029 21.460627 -8.583901 -173.310885 -2.747573 -181.160518 0.000000 0.000000 0.000000 -5.903283 -3.265451 -32.115406 18.632908 19.954231 86.000048 -0.243236 -13.543544 -6.131646 0.719071 -5.417815 -15.104451 0.000000 0.000000 0.000000 30.428640 9.173349 -4.234530 -1.919633 -8.696403 24.850286 -0.010660 -2.197625 -3.845225 -0.898569 6.041319 -16.904367 8.328217 0.358168 9.828227 4.504423 0.609190 3.953167 -0.044200 0.031370 -1.292503 -10.682478 0.914394 -10.513680 6.108791 -5.259243 41.946571 3.227351 -5.072787 17.632536 0.000000 0.000000 0.000000 3.511884 7.037071 -24.729764 27.701516 -38.839953 9.935953 23.705292 1.907191 -18.464674 0.000000 0.000000 0.000000 -7.125000 0.000000 0.000000 -4.405134 49.964649 0.540097 0.000000 0.000000 0.000000 -7.621997 0.409874 1.224883 -15.045927 -24.209951 -3.244865 -22.780698 -16.741353 -11.757697 0.000000 0.000000 0.000000 7.125000 0.000000 0.000000 3.065639 17.269810 2.020169
10.040675 21.292790 -8.830059 -173.168942 -1.005136 -180.328588 0.000000 0.000000 0.000000 -8.645228 -3.431533 -24.705441 10.094194 17.453325 59.790231 -0.601043 -15.188165 -1.673290 0.257869 -3.265522 -9.019091 0.000000 0.000000 0.000000 30.276181 9.215458 -6.573099 -2.713287 -10.215717 29.678242 -0.141582 -1.288437 -7.702894 -0.948483 6.202154 -17.372147 8.924574 0.748671 8.825127 4.309252 1.072950 3.959700 -0.616607 0.298937 -0.682684 -9.980796 1.284390 -10.344051 5.268614 -4.564107 42.057157 2.826926 -4.801597 17.506442 0.000000 0.000000 0.000000 3.153088 8.566586 -24.535835 25.557865 -36.767474 8.622138 25.155071 2.258321 -18.867677 0.000000 0.000000 0.000000 -7.125000 0.000000 0.000000 -3.061423 50.644331 0.410802 0.000000 0.000000 0.000000 -7.478061 0.931253 7.954236 -18.771121 -29.132802 -4.919109 -21.839348 -17.635662 -11.849732 0.000000 0.000000 0.000000 7.125000 0.000000 0.000000 3.726525 17.259404 2.458177
9.886015 21.143399 -9.134467 -173.344245 0.854633 -179.294114 0.000000 0.000000 0.000000 -11.295131 -1.642933 -14.717217 4.051914 12.225331 36.539400 -0.554834 -14.324670 -1.009600 0.533158 -4.673521 -12.980449 0.000000 0.000000 0.000000 29.141760 10.012832 -8.674267 -3.490989 -11.450247 33.814097 -0.295796 1.417195 -9.874811 -0.802794 5.718446 -15.969784 8.081375 0.060143 6.892284 4.306569 1.208698 3.787086 -0.147632 0.943771 0.110803 -9.738940 2.130168 -10.275655 5.041366 -3.708971 42.943300 2.797573 -4.609806 17.883508 0.000000 0.000000 0.000000 1.280507 9.414460 -22.095264 21.396472 -32.287203 6.260773 25.360804 2.042122 -16.184253 0.000000 0.000000 0.000000 -7.125000 0.000000 0.000000 -2.317164 47.770466 0.164334 0.000000 0.000000 0.000000 -7.816584 0.122798 12.374576 -21.265950 -32.137134 -6.190927 -19.919051 -18.501730 -12.539756 0.000000 0.000000 0.000000 7.125000 0.000000 0.000000 5.084955 16.703566 3.423060
